<svg width="128" height="148" viewBox="0 0 128 148" fill="none" xmlns="http://www.w3.org/2000/svg">
	<g id="Frame 1" clip-path="url(#clip0_2_2)">
		<g id="logo 1">
			<g id="lLeryMGHtGgiF9aEZvcjcj">
				<g id="Group">
					<path id="plciZaVze" d="M18.7353 147.785C13.6379 147.027 9.3356 144.753 5.82824 141.057C3.44324 138.498 2.13383 136.318 0.964713 132.812C0.122948 130.348 0.0294189 128.832 0.0294189 115.47C0.0294189 99.1229 0.356772 96.4694 3.02236 89.978C6.8103 80.9278 13.3106 74.0099 22.2894 69.4138C26.9191 67.092 33.6532 65.481 37.7218 65.7653C38.2362 65.7653 40.1535 66.9972 41.9306 68.4661C45.8121 71.6408 50.0209 73.8678 54.7441 75.2893C59.7947 76.8055 67.6044 76.8529 72.7485 75.384C77.5653 73.9625 81.9144 71.6408 85.6556 68.4187C87.2924 66.9972 89.0694 65.8127 89.5838 65.7653C93.5121 65.4336 100.012 66.9499 105.11 69.4138C115.725 74.5311 123.629 84.3394 126.294 95.8534C127.089 99.1229 127.229 101.871 127.323 114.617C127.463 130.822 127.416 131.438 124.751 136.698C123.348 139.446 119.466 143.379 116.474 145.084C111.657 147.785 113.434 147.69 65.5 147.975C41.1824 148.069 20.1382 148.022 18.7353 147.785ZM110.394 136.366C112.639 135.323 115.819 131.675 116.427 129.495C117.222 126.558 117.081 103.293 116.24 99.2176C114.322 89.9306 107.588 82.065 98.3756 78.3691C93.5121 76.4264 93.0444 76.4264 90.4724 78.6061C87.1521 81.3543 79.9503 84.9554 75.0868 86.2347C71.4859 87.2298 69.8024 87.3719 63.3956 87.3245C56.6147 87.3245 55.5391 87.1824 51.7044 85.9978C46.1862 84.292 42.5385 82.4915 38.1427 79.3168C34.5418 76.6634 34.5418 76.6634 31.7359 77.4215C24.16 79.3642 17.005 85.2871 13.6847 92.3945C10.6918 98.7912 10.5515 99.881 10.645 115.233C10.7853 130.017 10.9256 131.012 13.4977 133.712C16.3035 136.745 15.3682 136.603 40.7147 136.934C53.4347 137.077 73.9644 137.171 86.3103 137.124C105.811 137.124 108.991 137.029 110.394 136.366Z" fill="black" />
					<path id="pqmntVCfb" d="M56.755 134.518C54.978 133.428 54.2765 132.196 54.2297 130.159C54.183 128.406 63.723 94.0055 64.9388 91.3995C66.6691 87.751 72.0938 87.7984 73.9644 91.4468C74.4321 92.4419 74.8529 93.5791 74.8529 93.9581C74.8529 95.3796 64.518 131.912 63.8165 133.002C63.0682 134.139 60.543 135.466 59.0932 135.466C58.6256 135.466 57.5968 135.039 56.755 134.518Z" fill="black" />
					<path id="pvIIb0yEb" d="M38.3765 120.493C31.5956 113.717 31.0812 112.722 32.6712 109.594C33.9338 107.131 43.4271 97.7014 45.0638 97.3223C46.8877 96.8485 48.5712 97.4171 50.1144 98.9333C52.9203 101.824 52.4059 104.098 47.823 108.647C44.7365 111.727 44.7365 111.727 48.1036 115.28C51.2368 118.645 51.4706 119.024 51.4706 121.014C51.4706 124.046 49.6936 125.989 46.6538 126.321C44.4091 126.605 44.4091 126.605 38.3765 120.493Z" fill="black" />
					<path id="pJwG2htLB" d="M79.5294 126.084C76.3027 124.615 74.9465 121.488 76.3027 118.739C76.5833 118.171 78.1265 116.37 79.6697 114.759C82.4756 111.822 82.4756 111.822 79.1553 108.22C76.2559 105.188 75.7883 104.43 75.7883 102.961C75.7883 100.734 76.9106 98.6964 78.5941 97.7962C81.6806 96.1851 82.9433 96.8959 89.958 104.098C97.4403 111.822 97.4403 111.964 89.0227 120.398C83.4109 126.036 81.6806 127.031 79.5294 126.084Z" fill="black" />
					<path id="p1DAWtGPLJ" d="M55.6794 66.2391C43.8479 63.1119 35.1965 54.5355 31.5021 42.3108C30.3797 38.4254 30.3797 29.2331 31.5488 25.3477C34.5418 15.3499 40.5744 8.00552 49.5532 3.50414C54.1829 1.18238 58.2047 0.2821 64.0971 0.329483C78.1732 0.376865 90.4724 9.427 95.2891 23.2628C96.9259 27.9063 97.3 35.6771 96.1777 40.8419C93.4653 53.0667 84.0656 63.0171 72.2809 66.0496C66.5756 67.5185 60.7768 67.6132 55.6794 66.2391ZM68.4462 56.0992C75.2271 54.6777 80.9324 50.1289 84.0656 43.7322C85.8427 40.0364 85.8427 40.0364 85.8427 33.8292C85.8427 27.622 85.8427 27.622 84.0656 23.9262C77.1444 9.80607 59.0465 6.63141 47.9632 17.6716C38.9376 26.6744 38.9844 40.984 48.01 50.0342C53.6685 55.6727 60.6832 57.7576 68.4462 56.0992Z" fill="black" />
				</g>
			</g>
		</g>
	</g>
	<defs>
		<clipPath id="clip0_2_2">
			<rect width="128" height="148" fill="white" />
		</clipPath>
	</defs>
</svg>
